<svg width="1440" height="59" viewBox="0 0 1440 59" fill="none" xmlns="http://www.w3.org/2000/svg">
<path d="M2.00015 48.2195C5.42255 47.7703 15.2464 43.9623 37.8805 37.3123C45.3661 35.1129 64.3879 30.721 91.9141 25.8571C114.434 21.8777 123.513 22.977 138.261 20.6894C148.055 19.1702 159.852 18.9528 169.258 17.588C179.167 16.1502 193.777 14.9011 204.888 13.7998C210.969 13.1971 215.964 13.1861 232.277 12.632C247.117 12.1279 275.314 12.8697 290.567 12.7991C307.293 12.7216 317.541 11.8706 329.578 12.2515C335.528 12.4397 309.291 17.1903 299.672 17.8279C290.913 18.4086 256.901 25.9131 235.944 30.1639C227.527 31.8712 223.117 34.448 220.388 37.3678C219.068 38.7804 218.146 40.2931 220.066 41.0692C234.619 46.95 248.531 39.1889 261.056 38.1037C281.395 36.3414 298.155 35.3157 311.181 34.2361C320.674 33.4493 331.085 33.2347 346.245 31.6839C371.975 29.0517 390.557 29.9615 400.565 29.3357C435.677 27.1404 451.366 28.1826 463.251 27.0901C471.6 26.3226 489.191 25.6544 501.326 24.5647C513.832 23.4417 527.547 23.1322 548.143 22.1386C584.578 20.3811 611.591 22.1203 617.955 21.4531C621.867 21.0429 627.229 21.307 629.251 21.5741C630.167 21.695 624.403 23.7302 615.535 26.3362C601.69 30.405 594.329 33.742 585.949 36.849C579.595 39.2047 573.626 40.9021 569.406 42.8288C562.893 45.8022 595.069 41.1755 610.654 37.8915C617.137 36.5253 629.054 35.6454 661.078 30.3667C684.743 26.4657 723.759 22.0197 745.279 19.4984C775.093 16.0052 787.887 14.7615 800.204 13.171C820.698 10.5246 832.61 11.8088 844.185 10.7127C858.666 9.34153 881.174 7.9235 895.783 6.86191C899.45 6.59548 905.285 6.71847 909.265 6.51965C923.016 5.83259 847.828 23.3116 840.404 25.2018C834.377 26.7366 828.585 29.0092 822.407 32.1412C815.742 35.5199 807.422 35.1879 800.248 37.8057C793.231 40.3662 787.196 41.8506 781.275 43.7579C779.789 44.2365 778.325 44.7079 778.786 44.9646C785.211 48.5413 792.519 43.8931 818.348 41.2581C841.777 38.868 886.042 33.2417 940.719 28.6494C995.396 24.0571 1059.11 20.3884 1093.16 18.2683C1129.66 15.9953 1137.98 15.2797 1147.55 15.1444C1165.46 14.8911 1193.98 12.4848 1206.53 11.3776C1216.64 10.4854 1228.4 9.4149 1255.11 9.45976C1259.08 9.46642 1233.93 14.8617 1217.34 18.8811C1203.94 22.1261 1188.1 24.2211 1160.56 29.5656C1141.44 33.2773 1116.85 36.2202 1087.76 40.5782C1075.92 42.3509 1067.02 45.0313 1061.1 46.9385C1058.15 47.8886 1055.18 48.8458 1053.69 49.8125C1047.82 53.6168 1073.27 50.5453 1097.7 48.3677C1115.74 46.7592 1149.8 43.1027 1169.3 40.8246C1188.79 38.5466 1192.69 37.6147 1207.36 35.8142C1222.02 34.0136 1247.32 31.3727 1262.3 30.0343C1287.57 27.7768 1298.39 27.4567 1311.66 26.3799C1330.79 24.8275 1359.13 25.189 1384.07 24.2448C1403.81 24.2176 1418.76 23.8995 1425.61 23.2378C1430.02 23.0365 1436.34 23.1083 1441.38 23.1656" stroke="white" stroke-width="13" stroke-linecap="square"/>
</svg>
