<svg width="46" height="45" viewBox="0 0 46 45" fill="none" xmlns="http://www.w3.org/2000/svg">
<path fill-rule="evenodd" clip-rule="evenodd" d="M33.7734 0H11.2578C5.06658 0 0 5.06081 0 11.25V33.75C0 39.9369 5.06658 45 11.2578 45H33.7734C39.9647 45 45.0312 39.9369 45.0312 33.75V11.25C45.0312 5.06081 39.9647 0 33.7734 0ZM22.5157 31.8749C17.3337 31.8749 13.134 27.6764 13.134 22.5003C13.134 17.3219 17.3337 13.1251 22.5157 13.1251C27.6954 13.1251 31.8974 17.3219 31.8974 22.5003C31.8974 27.6764 27.6954 31.8749 22.5157 31.8749ZM31.8973 10.3126C31.8973 11.8656 33.1559 13.1251 34.7117 13.1251C36.2675 13.1251 37.5262 11.8656 37.5262 10.3126C37.5262 8.7595 36.2675 7.50007 34.7117 7.50007C33.1559 7.50007 31.8973 8.7595 31.8973 10.3126Z" fill="white"/>
</svg>
